<?xml version="1.0"?>
<svg width="380" height="190" xmlns="http://www.w3.org/2000/svg" xmlns:svg="http://www.w3.org/2000/svg">
 <defs>
  <filter color-interpolation-filters="sRGB" filterUnits="userSpaceOnUse" height="190" id="filter0_d_59_4" width="380" x="0" y="0">
   <feFlood flood-opacity="0" result="BackgroundImageFix"/>
   <feColorMatrix in="SourceAlpha" result="hardAlpha" type="matrix" values="0 0 0 0 0 0 0 0 0 0 0 0 0 0 0 0 0 0 127 0"/>
   <feOffset dy="20"/>
   <feGaussianBlur stdDeviation="20"/>
   <feComposite in2="hardAlpha" operator="out"/>
   <feColorMatrix type="matrix" values="0 0 0 0 0 0 0 0 0 0 0 0 0 0 0 0 0 0 0.1 0"/>
   <feBlend in2="BackgroundImageFix"/>
   <feBlend in="SourceGraphic" in2="effect1_dropShadow_59_4"/>
  </filter>
 </defs>
 <g class="layer">
  <title>Layer 1</title>
  <g filter="url(#filter0_d_59_4)" id="svg_1">
   <path d="m40,70c0,-27.61 22.39,-50 50,-50l240,0c5.52,0 10,4.48 10,10l0,50c0,27.61 -22.39,50 -50,50l-240,0c-5.52,0 -10,-4.48 -10,-10l0,-50z" fill="none" id="svg_2" stroke-width="0"/>
   <circle cx="95" cy="75" fill="#FDEDEF" id="svg_3" r="25"/>
   <path d="m101.09,85.44c-0.95,0 -2.29,-0.35 -4.29,-1.47c-2.44,-1.36 -4.33,-2.63 -6.75,-5.05c-2.34,-2.33 -3.48,-3.84 -5.07,-6.74c-1.8,-3.27 -1.49,-4.99 -1.15,-5.72c0.41,-0.88 1.01,-1.4 1.79,-1.92c0.44,-0.29 0.91,-0.54 1.4,-0.74c0.05,-0.02 0.09,-0.04 0.13,-0.06c0.24,-0.11 0.61,-0.28 1.07,-0.1c0.31,0.12 0.59,0.35 1.02,0.78c0.89,0.88 2.1,2.83 2.55,3.78c0.3,0.65 0.5,1.07 0.5,1.55c0,0.56 -0.28,0.99 -0.62,1.46c-0.07,0.08 -0.13,0.17 -0.19,0.25c-0.37,0.49 -0.46,0.63 -0.4,0.88c0.11,0.51 0.92,2.01 2.25,3.34c1.34,1.34 2.8,2.1 3.31,2.21c0.26,0.05 0.41,-0.03 0.91,-0.42c0.07,-0.05 0.15,-0.11 0.22,-0.17c0.53,-0.38 0.94,-0.66 1.48,-0.66l0,0c0.48,0 0.89,0.21 1.56,0.55c0.88,0.44 2.89,1.64 3.77,2.53c0.42,0.43 0.66,0.7 0.78,1.01c0.18,0.47 0.01,0.83 -0.1,1.08c-0.01,0.04 -0.04,0.08 -0.06,0.13c-0.2,0.49 -0.45,0.95 -0.74,1.4c-0.52,0.77 -1.05,1.37 -1.93,1.78c-0.45,0.21 -0.94,0.32 -1.44,0.32z" fill="#EE4A62" id="svg_4"/>
   <path d="m140.12,66.09c-0.86,0 -1.65,-0.2 -2.36,-0.6c-0.72,-0.4 -1.28,-0.95 -1.71,-1.66c-0.41,-0.72 -0.62,-1.53 -0.62,-2.42c0,-0.89 0.21,-1.69 0.62,-2.4c0.43,-0.71 0.99,-1.27 1.71,-1.67c0.71,-0.4 1.5,-0.6 2.36,-0.6c0.86,0 1.64,0.2 2.35,0.6c0.72,0.4 1.29,0.96 1.69,1.67c0.42,0.71 0.63,1.51 0.63,2.4c0,0.89 -0.21,1.7 -0.63,2.42c-0.41,0.71 -0.97,1.26 -1.69,1.66c-0.71,0.4 -1.49,0.6 -2.35,0.6zm0,-2.03c0.73,0 1.31,-0.24 1.74,-0.72c0.45,-0.49 0.67,-1.13 0.67,-1.93c0,-0.81 -0.22,-1.45 -0.67,-1.92c-0.43,-0.49 -1.01,-0.73 -1.74,-0.73c-0.74,0 -1.32,0.24 -1.77,0.71c-0.43,0.48 -0.65,1.13 -0.65,1.94c0,0.81 0.22,1.45 0.65,1.94c0.45,0.47 1.03,0.71 1.77,0.71zm14.46,1.94l-2.22,0l-3.72,-5.63l0,5.63l-2.22,0l0,-9.13l2.22,0l3.72,5.66l0,-5.66l2.22,0l0,9.13zm4.22,-1.72l2.92,0l0,1.72l-5.14,0l0,-9.13l2.22,0l0,7.41zm6.59,-7.41l0,9.13l-2.22,0l0,-9.13l2.22,0zm10.16,9.13l-2.22,0l-3.72,-5.63l0,5.63l-2.22,0l0,-9.13l2.22,0l3.72,5.66l0,-5.66l2.22,0l0,9.13zm4.23,-7.34l0,1.84l2.98,0l0,1.72l-2.98,0l0,2l3.37,0l0,1.78l-5.59,0l0,-9.13l5.59,0l0,1.79l-3.37,0zm11.65,7.43c-0.67,0 -1.27,-0.11 -1.8,-0.32c-0.53,-0.22 -0.95,-0.54 -1.27,-0.97c-0.31,-0.42 -0.48,-0.93 -0.5,-1.53l2.37,0c0.03,0.34 0.15,0.6 0.35,0.78c0.2,0.17 0.46,0.26 0.78,0.26c0.33,0 0.59,-0.07 0.78,-0.22c0.19,-0.16 0.29,-0.37 0.29,-0.64c0,-0.22 -0.08,-0.41 -0.24,-0.56c-0.14,-0.14 -0.33,-0.27 -0.56,-0.36c-0.21,-0.1 -0.53,-0.2 -0.93,-0.33c-0.59,-0.18 -1.07,-0.36 -1.45,-0.54c-0.37,-0.18 -0.69,-0.45 -0.96,-0.81c-0.27,-0.35 -0.4,-0.82 -0.4,-1.39c0,-0.85 0.31,-1.51 0.92,-1.99c0.62,-0.48 1.42,-0.73 2.41,-0.73c1,0 1.81,0.25 2.43,0.73c0.61,0.48 0.94,1.15 0.99,2l-2.41,0c-0.01,-0.29 -0.12,-0.52 -0.32,-0.69c-0.2,-0.17 -0.46,-0.26 -0.77,-0.26c-0.27,0 -0.48,0.08 -0.65,0.23c-0.17,0.13 -0.25,0.34 -0.25,0.61c0,0.29 0.14,0.52 0.42,0.69c0.28,0.16 0.71,0.34 1.3,0.53c0.59,0.2 1.07,0.39 1.43,0.57c0.37,0.18 0.69,0.45 0.96,0.79c0.27,0.35 0.4,0.8 0.4,1.34c0,0.52 -0.13,1 -0.4,1.42c-0.26,0.42 -0.64,0.76 -1.14,1.01c-0.51,0.26 -1.1,0.38 -1.78,0.38zm7.27,-9.22l0,5.46c0,0.55 0.13,0.97 0.4,1.26c0.27,0.3 0.66,0.45 1.18,0.45c0.52,0 0.92,-0.15 1.2,-0.45c0.27,-0.29 0.41,-0.71 0.41,-1.26l0,-5.46l2.23,0l0,5.45c0,0.82 -0.18,1.5 -0.52,2.07c-0.35,0.56 -0.82,0.99 -1.41,1.27c-0.58,0.29 -1.23,0.43 -1.95,0.43c-0.72,0 -1.36,-0.14 -1.93,-0.42c-0.57,-0.28 -1.01,-0.71 -1.34,-1.27c-0.33,-0.57 -0.5,-1.26 -0.5,-2.08l0,-5.45l2.23,0zm14.32,2.94c0,0.53 -0.12,1.02 -0.36,1.46c-0.24,0.43 -0.62,0.78 -1.12,1.05c-0.5,0.27 -1.13,0.4 -1.87,0.4l-1.38,0l0,3.28l-2.22,0l0,-9.13l3.6,0c0.73,0 1.34,0.13 1.84,0.38c0.51,0.25 0.89,0.6 1.14,1.04c0.25,0.44 0.37,0.95 0.37,1.52zm-3.52,1.15c0.43,0 0.74,-0.1 0.95,-0.3c0.21,-0.2 0.31,-0.48 0.31,-0.85c0,-0.36 -0.1,-0.64 -0.31,-0.84c-0.21,-0.2 -0.52,-0.3 -0.95,-0.3l-1.21,0l0,2.29l1.21,0zm12.03,-1.15c0,0.53 -0.13,1.02 -0.37,1.46c-0.24,0.43 -0.61,0.78 -1.12,1.05c-0.5,0.27 -1.12,0.4 -1.87,0.4l-1.38,0l0,3.28l-2.22,0l0,-9.13l3.6,0c0.73,0 1.34,0.13 1.85,0.38c0.5,0.25 0.88,0.6 1.13,1.04c0.25,0.44 0.38,0.95 0.38,1.52zm-3.53,1.15c0.43,0 0.74,-0.1 0.95,-0.3c0.21,-0.2 0.31,-0.48 0.31,-0.85c0,-0.36 -0.1,-0.64 -0.31,-0.84c-0.21,-0.2 -0.52,-0.3 -0.95,-0.3l-1.21,0l0,2.29l1.21,0zm9.39,5.13c-0.86,0 -1.65,-0.2 -2.37,-0.6c-0.71,-0.4 -1.28,-0.95 -1.7,-1.66c-0.42,-0.72 -0.62,-1.53 -0.62,-2.42c0,-0.89 0.2,-1.69 0.62,-2.4c0.42,-0.71 0.99,-1.27 1.7,-1.67c0.72,-0.4 1.51,-0.6 2.37,-0.6c0.86,0 1.64,0.2 2.35,0.6c0.72,0.4 1.28,0.96 1.69,1.67c0.42,0.71 0.63,1.51 0.63,2.4c0,0.89 -0.21,1.7 -0.63,2.42c-0.41,0.71 -0.98,1.26 -1.69,1.66c-0.71,0.4 -1.49,0.6 -2.35,0.6zm0,-2.03c0.73,0 1.31,-0.24 1.74,-0.72c0.44,-0.49 0.66,-1.13 0.66,-1.93c0,-0.81 -0.22,-1.45 -0.66,-1.92c-0.43,-0.49 -1.01,-0.73 -1.74,-0.73c-0.74,0 -1.33,0.24 -1.77,0.71c-0.43,0.48 -0.65,1.13 -0.65,1.94c0,0.81 0.22,1.45 0.65,1.94c0.44,0.47 1.03,0.71 1.77,0.71zm10.95,1.94l-1.9,-3.45l-0.53,0l0,3.45l-2.23,0l0,-9.13l3.73,0c0.72,0 1.33,0.13 1.84,0.38c0.51,0.25 0.89,0.6 1.14,1.04c0.25,0.43 0.38,0.92 0.38,1.46c0,0.6 -0.18,1.15 -0.52,1.62c-0.34,0.48 -0.84,0.82 -1.51,1.02l2.1,3.61l-2.5,0zm-2.43,-5.02l1.37,0c0.41,0 0.71,-0.1 0.91,-0.3c0.21,-0.2 0.31,-0.48 0.31,-0.84c0,-0.35 -0.1,-0.62 -0.31,-0.82c-0.2,-0.2 -0.5,-0.3 -0.91,-0.3l-1.37,0l0,2.26zm13.21,-4.11l0,1.79l-2.42,0l0,7.34l-2.22,0l0,-7.34l-2.42,0l0,-1.79l7.06,0z" fill="#89898B" id="svg_5"/>
   <path d="m141.18,91.84l0,-4.29l-4.28,0l0,-1.68l4.28,0l0,-4.29l1.68,0l0,4.29l4.29,0l0,1.68l-4.29,0l0,4.29l-1.68,0zm16.14,3.48c-1.34,0 -2.52,-0.36 -3.54,-1.07c-1.01,-0.72 -1.8,-1.72 -2.37,-3.01c-0.56,-1.29 -0.84,-2.78 -0.84,-4.48c0,-1.71 0.28,-3.2 0.84,-4.48c0.57,-1.29 1.36,-2.29 2.37,-3c1.02,-0.72 2.2,-1.08 3.54,-1.08c1.35,0 2.53,0.36 3.53,1.08c1.02,0.71 1.8,1.71 2.36,3c0.57,1.28 0.85,2.77 0.85,4.48c0,1.7 -0.28,3.19 -0.85,4.48c-0.56,1.29 -1.34,2.29 -2.36,3.01c-1,0.71 -2.18,1.07 -3.53,1.07zm0,-1.81c0.93,0 1.74,-0.28 2.42,-0.83c0.69,-0.55 1.22,-1.34 1.6,-2.35c0.38,-1.01 0.57,-2.2 0.57,-3.57c0,-1.37 -0.19,-2.56 -0.57,-3.57c-0.38,-1.01 -0.91,-1.8 -1.6,-2.35c-0.68,-0.55 -1.49,-0.83 -2.42,-0.83c-0.92,0 -1.73,0.28 -2.43,0.83c-0.68,0.55 -1.22,1.34 -1.6,2.35c-0.38,1.01 -0.57,2.2 -0.57,3.57c0,1.37 0.19,2.56 0.57,3.57c0.38,1.01 0.92,1.8 1.6,2.35c0.7,0.55 1.51,0.83 2.43,0.83zm11.19,1.49l0,-14.5l-1.83,0l0,-2l3.86,0l0,16.5l-2.03,0zm5.56,0l0,-0.99c1.46,-1.14 2.73,-2.16 3.8,-3.05c1.07,-0.89 1.96,-1.69 2.69,-2.39c0.72,-0.71 1.31,-1.34 1.74,-1.9c0.44,-0.57 0.75,-1.09 0.94,-1.57c0.19,-0.48 0.29,-0.95 0.29,-1.4c0,-0.67 -0.16,-1.28 -0.48,-1.83c-0.32,-0.55 -0.76,-0.99 -1.3,-1.32c-0.54,-0.33 -1.15,-0.49 -1.82,-0.49c-0.66,0 -1.27,0.16 -1.81,0.49c-0.55,0.33 -1,0.78 -1.37,1.37c-0.36,0.59 -0.6,1.27 -0.71,2.05l-1.77,-0.7c0.11,-0.74 0.33,-1.42 0.66,-2.04c0.33,-0.62 0.75,-1.16 1.26,-1.61c0.51,-0.45 1.09,-0.8 1.74,-1.05c0.65,-0.25 1.35,-0.38 2.11,-0.38c1.07,0 2.04,0.24 2.9,0.72c0.86,0.47 1.54,1.12 2.04,1.95c0.5,0.82 0.75,1.75 0.75,2.8c0,0.53 -0.08,1.06 -0.24,1.57c-0.15,0.51 -0.41,1.05 -0.77,1.6c-0.35,0.55 -0.83,1.13 -1.43,1.76c-0.6,0.62 -1.33,1.3 -2.2,2.05c-0.87,0.75 -1.9,1.58 -3.09,2.5l8.03,0l0,1.86l-11.96,0zm23.81,5.2c-0.39,-0.51 -0.81,-1.15 -1.23,-1.91c-0.43,-0.76 -0.83,-1.63 -1.19,-2.6c-0.37,-0.97 -0.67,-2.02 -0.9,-3.17c-0.22,-1.15 -0.32,-2.37 -0.32,-3.66c0,-1.29 0.11,-2.52 0.33,-3.67c0.23,-1.15 0.52,-2.21 0.89,-3.18c0.36,-0.97 0.76,-1.84 1.19,-2.6c0.42,-0.76 0.84,-1.4 1.23,-1.91l1.27,0.54c-0.46,0.68 -0.93,1.55 -1.4,2.61c-0.48,1.06 -0.87,2.28 -1.19,3.66c-0.32,1.38 -0.47,2.9 -0.47,4.55c0,1.61 0.15,3.11 0.45,4.48c0.32,1.37 0.71,2.59 1.18,3.66c0.48,1.07 0.95,1.95 1.43,2.66l-1.27,0.54zm8.76,-4.88c-0.98,0 -1.87,-0.18 -2.65,-0.53c-0.78,-0.35 -1.42,-0.85 -1.92,-1.48c-0.5,-0.63 -0.81,-1.37 -0.93,-2.21l1.92,-0.78c0.02,0.63 0.18,1.18 0.49,1.66c0.3,0.48 0.72,0.85 1.26,1.12c0.53,0.27 1.14,0.4 1.83,0.4c0.99,0 1.78,-0.27 2.38,-0.82c0.59,-0.55 0.89,-1.27 0.89,-2.16c0,-0.63 -0.15,-1.2 -0.44,-1.71c-0.29,-0.51 -0.68,-0.91 -1.16,-1.2c-0.49,-0.3 -1.03,-0.45 -1.62,-0.45c-0.26,0 -0.48,0.03 -0.66,0.09l0,-1.45l0.61,0c0.58,0 1.1,-0.14 1.57,-0.42c0.46,-0.28 0.83,-0.65 1.11,-1.11c0.27,-0.47 0.41,-0.97 0.41,-1.51c0,-0.54 -0.14,-1.03 -0.4,-1.46c-0.27,-0.43 -0.63,-0.78 -1.07,-1.03c-0.45,-0.25 -0.94,-0.38 -1.48,-0.38c-0.55,0 -1.05,0.13 -1.51,0.39c-0.46,0.26 -0.83,0.61 -1.11,1.05c-0.29,0.44 -0.45,0.94 -0.48,1.49l-1.67,-0.66c0.1,-0.77 0.38,-1.46 0.83,-2.05c0.44,-0.6 1.01,-1.07 1.7,-1.4c0.69,-0.34 1.45,-0.51 2.27,-0.51c0.91,0 1.73,0.2 2.46,0.6c0.72,0.4 1.3,0.94 1.72,1.62c0.42,0.68 0.63,1.45 0.63,2.3c0,0.54 -0.1,1.05 -0.29,1.53c-0.19,0.48 -0.46,0.91 -0.8,1.28c-0.35,0.37 -0.76,0.66 -1.22,0.87c0.51,0.19 0.97,0.48 1.37,0.87c0.4,0.39 0.72,0.85 0.95,1.4c0.23,0.54 0.35,1.15 0.35,1.82c0,0.92 -0.22,1.75 -0.66,2.48c-0.44,0.73 -1.05,1.3 -1.85,1.72c-0.8,0.42 -1.75,0.63 -2.83,0.63zm15.67,-0.32l0,-3.13l-8.26,0l0,-0.78l8.17,-12.59l2.01,0l0,11.58l1.92,0l0,1.79l-1.92,0l0,3.13l-1.92,0zm-5.56,-4.92l5.56,0l0,-8.8l-5.56,8.8zm17.44,5.23c-0.88,0 -1.72,-0.14 -2.5,-0.42c-0.77,-0.29 -1.44,-0.7 -2.01,-1.23c-0.58,-0.53 -1,-1.18 -1.28,-1.93l1.61,-0.79c0.29,0.82 0.81,1.47 1.55,1.95c0.76,0.48 1.63,0.72 2.63,0.72c0.8,0 1.49,-0.15 2.07,-0.46c0.6,-0.31 1.06,-0.75 1.39,-1.32c0.32,-0.57 0.48,-1.23 0.48,-2c0,-0.87 -0.2,-1.61 -0.62,-2.24c-0.4,-0.63 -0.97,-1.12 -1.69,-1.46c-0.72,-0.34 -1.54,-0.51 -2.48,-0.51c-0.76,0 -1.49,0.14 -2.16,0.42c-0.68,0.28 -1.31,0.69 -1.89,1.23l1.37,-8.77l8.43,0l0,1.79l-6.71,0l-0.75,4.78c1.34,-0.66 2.72,-0.84 4.15,-0.55c0.86,0.12 1.62,0.41 2.28,0.88c0.65,0.46 1.16,1.06 1.53,1.8c0.37,0.73 0.56,1.58 0.56,2.53c0,1.21 -0.27,2.23 -0.81,3.06c-0.55,0.83 -1.27,1.45 -2.16,1.88c-0.9,0.43 -1.9,0.64 -2.99,0.64zm9.69,4.89l-1.26,-0.54c0.66,-0.97 1.21,-2.03 1.66,-3.2c0.46,-1.17 0.8,-2.39 1.03,-3.68c0.24,-1.29 0.36,-2.59 0.36,-3.92c0,-1.29 -0.11,-2.57 -0.34,-3.84c-0.23,-1.28 -0.57,-2.51 -1.02,-3.69c-0.44,-1.19 -1.01,-2.28 -1.69,-3.29l1.26,-0.54c1.18,1.54 2.07,3.29 2.69,5.26c0.63,1.96 0.94,3.99 0.94,6.09c0,2.03 -0.3,4.03 -0.91,6c-0.6,1.97 -1.51,3.75 -2.72,5.35zm17.66,-4.88c-0.92,0 -1.76,-0.15 -2.5,-0.45c-0.74,-0.31 -1.38,-0.72 -1.9,-1.25c-0.52,-0.53 -0.92,-1.13 -1.2,-1.81c-0.28,-0.68 -0.42,-1.4 -0.42,-2.15c0,-0.83 0.18,-1.7 0.54,-2.6c0.36,-0.91 0.85,-1.72 1.46,-2.45l5.1,-6.11l2.47,0l-5.03,5.98c0.3,-0.16 0.62,-0.28 0.96,-0.36c0.34,-0.09 0.69,-0.13 1.06,-0.13c0.74,0 1.43,0.14 2.08,0.42c0.64,0.27 1.21,0.66 1.7,1.17c0.48,0.51 0.86,1.11 1.14,1.8c0.28,0.69 0.42,1.45 0.42,2.28c0,1.11 -0.25,2.09 -0.75,2.94c-0.5,0.85 -1.2,1.52 -2.08,2c-0.88,0.48 -1.9,0.72 -3.05,0.72zm-0.08,-1.72c0.76,0 1.43,-0.17 2.03,-0.5c0.59,-0.34 1.06,-0.8 1.4,-1.39c0.34,-0.59 0.51,-1.25 0.51,-2c0,-0.76 -0.18,-1.44 -0.52,-2.03c-0.34,-0.6 -0.81,-1.07 -1.39,-1.41c-0.58,-0.35 -1.23,-0.52 -1.94,-0.52c-0.73,0 -1.39,0.18 -1.99,0.53c-0.6,0.35 -1.08,0.83 -1.44,1.44c-0.36,0.61 -0.53,1.29 -0.53,2.04c0,0.7 0.16,1.34 0.48,1.93c0.32,0.58 0.77,1.04 1.35,1.39c0.58,0.35 1.26,0.52 2.04,0.52zm8.16,1.4l8.12,-14.71l-7.89,0l0,-1.79l10.89,0l0,0.64l-8.72,15.86l-2.4,0zm18.76,0.32c-1.04,0 -1.97,-0.21 -2.8,-0.62c-0.82,-0.41 -1.46,-0.98 -1.95,-1.7c-0.47,-0.72 -0.7,-1.54 -0.7,-2.45c0,-0.99 0.27,-1.87 0.82,-2.65c0.56,-0.78 1.31,-1.35 2.23,-1.7c-0.75,-0.35 -1.34,-0.87 -1.77,-1.54c-0.42,-0.68 -0.64,-1.42 -0.64,-2.22c0,-0.81 0.22,-1.53 0.64,-2.16c0.43,-0.64 1,-1.15 1.73,-1.52c0.72,-0.37 1.54,-0.56 2.44,-0.56c0.62,0 1.22,0.1 1.8,0.3c0.57,0.2 1.08,0.49 1.53,0.86c0.46,0.37 0.81,0.82 1.08,1.34c0.26,0.51 0.4,1.09 0.4,1.73c0,0.82 -0.23,1.57 -0.67,2.24c-0.43,0.67 -1.01,1.18 -1.75,1.53c0.94,0.36 1.68,0.93 2.23,1.71c0.56,0.78 0.83,1.66 0.83,2.65c0,0.91 -0.23,1.72 -0.71,2.44c-0.48,0.71 -1.13,1.28 -1.95,1.7c-0.82,0.41 -1.75,0.62 -2.79,0.62zm0,-1.78c0.63,0 1.2,-0.14 1.68,-0.41c0.5,-0.28 0.88,-0.66 1.15,-1.14c0.28,-0.48 0.42,-1.02 0.42,-1.62c0,-0.62 -0.15,-1.17 -0.44,-1.65c-0.27,-0.48 -0.66,-0.86 -1.14,-1.13c-0.49,-0.28 -1.05,-0.42 -1.67,-0.42c-0.62,0 -1.17,0.14 -1.67,0.41c-0.48,0.27 -0.87,0.65 -1.15,1.13c-0.29,0.48 -0.43,1.03 -0.43,1.65c0,0.61 0.14,1.15 0.42,1.63c0.27,0.48 0.65,0.86 1.14,1.14c0.49,0.27 1.05,0.41 1.69,0.41zm0,-8.12c0.54,0 1.03,-0.12 1.45,-0.36c0.44,-0.25 0.78,-0.58 1.03,-1c0.24,-0.43 0.37,-0.91 0.37,-1.45c0,-0.54 -0.13,-1.02 -0.38,-1.45c-0.25,-0.43 -0.59,-0.77 -1.02,-1.02c-0.42,-0.25 -0.91,-0.37 -1.45,-0.37c-0.55,0 -1.03,0.12 -1.45,0.37c-0.43,0.25 -0.77,0.59 -1.03,1.02c-0.24,0.43 -0.36,0.91 -0.36,1.45c0,0.54 0.12,1.02 0.36,1.45c0.25,0.42 0.59,0.75 1.02,1c0.43,0.24 0.91,0.36 1.46,0.36zm10.48,9.58l5.12,-6.08c-0.56,0.39 -1.23,0.59 -1.99,0.59c-0.74,0 -1.44,-0.14 -2.1,-0.42c-0.65,-0.28 -1.23,-0.67 -1.74,-1.18c-0.5,-0.51 -0.89,-1.12 -1.19,-1.81c-0.28,-0.69 -0.43,-1.45 -0.43,-2.28c0,-1.06 0.24,-2.01 0.72,-2.86c0.49,-0.85 1.17,-1.53 2.05,-2.02c0.88,-0.5 1.91,-0.75 3.09,-0.75c1.2,0 2.25,0.25 3.15,0.76c0.91,0.5 1.62,1.18 2.12,2.05c0.52,0.86 0.77,1.83 0.77,2.91c0,0.51 -0.04,0.99 -0.13,1.43c-0.08,0.44 -0.21,0.86 -0.39,1.26c-0.17,0.39 -0.38,0.78 -0.64,1.16c-0.24,0.37 -0.53,0.75 -0.85,1.13l-5.09,6.11l-2.47,0zm3.62,-7.28c0.54,0 1.03,-0.1 1.49,-0.3c0.47,-0.21 0.88,-0.49 1.22,-0.85c0.36,-0.37 0.63,-0.79 0.83,-1.26c0.2,-0.47 0.3,-0.98 0.3,-1.52c0,-0.75 -0.16,-1.41 -0.5,-1.99c-0.32,-0.58 -0.78,-1.03 -1.36,-1.36c-0.57,-0.33 -1.23,-0.5 -1.98,-0.5c-0.74,0 -1.41,0.17 -2.01,0.5c-0.58,0.33 -1.05,0.79 -1.39,1.37c-0.34,0.58 -0.51,1.24 -0.51,1.98c0,0.74 0.17,1.41 0.51,2c0.35,0.59 0.82,1.06 1.4,1.41c0.6,0.35 1.26,0.52 2,0.52z" fill="none" id="svg_6" stroke-width="0"/>
  </g>
  <text fill="#ff007f" font-family="Serif" font-size="24" id="svg_7" stroke-width="0" text-anchor="middle" x="220.4" xml:space="preserve" y="95.8">+91 9365910717</text>
 </g>
</svg>